PathFileType	4	(X/Y/Z)	C:\Motion Data\9999\Fregly Locomotion Course\Processed\drive_kick1_markers.trc																																																																																																							
DataRate	CameraRate	NumFrames	NumMarkers	Units	OrigDataRate	OrigDataStartFrame	OrigNumFrames																																																																																																			
200	200	9	35	m	200	117	310																																																																																																			
Frame#	Time	R_Heel			R_Midfoot_Superior			R_Midfoot_Lateral			R_Toe			L_Heel			L_Midfoot_Superior			L_Midfoot_Lateral			L_Toe			R_Shank_Superior			R_Shank_Inferior			R_Shank_Lateral			R_Shank Posterior			L_Shank_Superior			L_Shank_Inferior			L_Shank_Lateral			L_Shank_Posterior			R_Patella			L_Patella			R_Thigh_Superior			R_Thigh_Inferior			R_Thigh_Lateral			L_Thigh_Superior			L_Thigh_Inferior			L_Thigh_Lateral			R_ASIS			L_ASIS			Sacral			R_Shoulder			L_Shoulder			Back			R_Elbow			L_Elbow			R_Wrist			L_Wrist			Ball		
		X1	Y1	Z1	X2	Y2	Z2	X3	Y3	Z3	X4	Y4	Z4	X5	Y5	Z5	X6	Y6	Z6	X7	Y7	Z7	X8	Y8	Z8	X9	Y9	Z9	X10	Y10	Z10	X11	Y11	Z11	X12	Y12	Z12	X13	Y13	Z13	X14	Y14	Z14	X15	Y15	Z15	X16	Y16	Z16	X17	Y17	Z17	X18	Y18	Z18	X19	Y19	Z19	X20	Y20	Z20	X21	Y21	Z21	X22	Y22	Z22	X23	Y23	Z23	X24	Y24	Z24	X25	Y25	Z25	X26	Y26	Z26	X27	Y27	Z27	X28	Y28	Z28	X29	Y29	Z29	X30	Y30	Z30	X31	Y31	Z31	X32	Y32	Z32	X33	Y33	Z33	X34	Y34	Z34	X35	Y35	Z35
																																																																																																										
117	0.580	   -0.60018	    0.47840	    0.45014	   -0.53933	    0.31979	    0.49932	   -0.61657	    0.35206	    0.52624	   -0.56429	    0.21257	    0.49194	    0.20073	    0.03446	    0.30322	    0.31581	    0.16892	    0.24610	    0.30609	    0.07560	    0.21467	    0.41054	    0.20060	    0.22556	   -0.23583	    0.45497	    0.54618	   -0.39285	    0.41292	    0.51969	   -0.34118	    0.50040	    0.57825	   -0.29605	    0.57407	    0.50231	    0.18791	    0.42821	    0.24575	    0.22779	    0.27511	    0.25450	    0.14284	    0.34588	    0.18354	    0.13967	    0.21222	    0.25275	   -0.10373	    0.49404	    0.56140	    0.18558	    0.53663	    0.23887	   -0.02948	    0.73402	    0.55519	   -0.05049	    0.63696	    0.56349	   -0.12730	    0.71647	    0.56820	    0.12085	    0.77483	    0.21248	    0.14532	    0.66441	    0.24084	    0.05413	    0.67947	    0.16317	    0.00891	    0.97152	    0.47496	    0.05782	    0.93672	    0.22349	   -0.11228	    1.05786	    0.30695	    0.10235	    1.38990	    0.53114	    0.14502	    1.44347	    0.17070	    0.10305	    1.46350	    0.33010	   -0.02159	    1.12670	    0.62757	   -0.09452	    1.41715	   -0.00319	    0.17191	    0.96331	    0.70444	   -0.27524	    1.34678	   -0.18728	    0.46503	    0.21657	    0.51475	
118	0.585	   -0.59668	    0.49626	    0.45167	   -0.54276	    0.33453	    0.50086	   -0.61932	    0.36995	    0.52623	   -0.57232	    0.22972	    0.49458	    0.21693	    0.03330	    0.30256	    0.33010	    0.16847	    0.24466	    0.32174	    0.07542	    0.21269	    0.42445	    0.20018	    0.22482	   -0.23338	    0.45601	    0.54523	   -0.39237	    0.42112	    0.52023	   -0.33656	    0.50570	    0.57826	   -0.28949	    0.57889	    0.50387	    0.20103	    0.42693	    0.24458	    0.24188	    0.27420	    0.25308	    0.15577	    0.34270	    0.18309	    0.15418	    0.21007	    0.25189	   -0.09977	    0.49090	    0.56083	    0.19765	    0.53549	    0.23739	   -0.02035	    0.73061	    0.55429	   -0.04324	    0.63296	    0.56213	   -0.11884	    0.71427	    0.56679	    0.13001	    0.77044	    0.21049	    0.15516	    0.66150	    0.23828	    0.06308	    0.67458	    0.16102	    0.01752	    0.96983	    0.47476	    0.06779	    0.93432	    0.22228	   -0.10358	    1.05381	    0.30564	    0.10692	    1.38866	    0.53034	    0.14887	    1.44303	    0.16970	    0.10776	    1.46243	    0.32795	   -0.01507	    1.12384	    0.62662	   -0.09200	    1.41480	   -0.00222	    0.17772	    0.96015	    0.70297	   -0.27548	    1.34274	   -0.18353	    0.46493	    0.21644	    0.51467	
119	0.590	   -0.59185	    0.51381	    0.45345	   -0.54599	    0.34961	    0.50235	   -0.62082	    0.38811	    0.52691	   -0.58257	    0.24537	    0.49181	    0.23140	    0.03157	    0.30169	    0.34467	    0.16744	    0.24374	    0.33506	    0.07433	    0.21149	    0.43845	    0.19931	    0.22189	   -0.23116	    0.45519	    0.54075	   -0.39117	    0.42912	    0.52006	   -0.33279	    0.51053	    0.57792	   -0.28264	    0.58315	    0.50490	    0.21454	    0.42506	    0.24349	    0.25577	    0.27269	    0.25220	    0.16878	    0.34129	    0.18192	    0.16814	    0.20867	    0.25172	   -0.09585	    0.48658	    0.55892	    0.21023	    0.53426	    0.23765	   -0.01139	    0.72638	    0.55206	   -0.03575	    0.62839	    0.55942	   -0.10966	    0.71168	    0.56563	    0.13900	    0.76541	    0.20804	    0.16550	    0.65868	    0.23618	    0.07281	    0.67078	    0.15780	    0.02866	    0.96923	    0.47246	    0.07703	    0.93184	    0.22075	   -0.09575	    1.04958	    0.30399	    0.11124	    1.38642	    0.52959	    0.15183	    1.44156	    0.16680	    0.11203	    1.46069	    0.32599	   -0.00903	    1.12069	    0.62408	   -0.08953	    1.41208	   -0.00221	    0.18364	    0.95608	    0.70098	   -0.27441	    1.33893	   -0.18175	    0.46489	    0.21783	    0.51318	
120	0.595	   -0.58562	    0.53016	    0.45500	   -0.55038	    0.36286	    0.49903	   -0.62127	    0.40588	    0.52842	   -0.59098	    0.26110	    0.49293	    0.24390	    0.02996	    0.30100	    0.35731	    0.16535	    0.24218	    0.34725	    0.07250	    0.20988	    0.45105	    0.19730	    0.21993	   -0.22846	    0.45661	    0.53983	   -0.38973	    0.43690	    0.52046	   -0.32722	    0.51528	    0.57740	   -0.27549	    0.58706	    0.50580	    0.22775	    0.42359	    0.24257	    0.26878	    0.27076	    0.25118	    0.18178	    0.33911	    0.18117	    0.18102	    0.20734	    0.25085	   -0.09202	    0.48285	    0.55502	    0.22380	    0.53143	    0.23675	   -0.00214	    0.72193	    0.55062	   -0.02835	    0.62364	    0.55587	   -0.10103	    0.70835	    0.56487	    0.14830	    0.76120	    0.20632	    0.17626	    0.65675	    0.23363	    0.08372	    0.66565	    0.15510	    0.03794	    0.96714	    0.47246	    0.08575	    0.92912	    0.22002	   -0.08780	    1.04511	    0.30285	    0.11493	    1.38419	    0.52664	    0.15540	    1.44031	    0.16575	    0.11566	    1.45820	    0.32495	   -0.00207	    1.11746	    0.62196	   -0.08749	    1.40870	   -0.00218	    0.18985	    0.95282	    0.69965	   -0.27253	    1.33451	   -0.17917	    0.46490	    0.21787	    0.51321	
121	0.600	   -0.57871	    0.54593	    0.45793	   -0.55186	    0.37860	    0.50368	   -0.62105	    0.42366	    0.53012	   -0.59928	    0.27696	    0.49138	    0.25435	    0.02775	    0.30030	    0.36891	    0.16239	    0.24083	    0.35760	    0.06942	    0.20863	    0.46261	    0.19306	    0.21810	   -0.22566	    0.45750	    0.53861	   -0.38777	    0.44445	    0.52088	   -0.32188	    0.51901	    0.57681	   -0.26883	    0.59070	    0.50526	    0.24162	    0.42119	    0.24176	    0.28143	    0.26847	    0.25011	    0.19462	    0.33679	    0.18048	    0.19372	    0.20518	    0.24986	   -0.08734	    0.47877	    0.55119	    0.23814	    0.53021	    0.23384	    0.00676	    0.71714	    0.54897	   -0.02086	    0.61826	    0.55213	   -0.09251	    0.70510	    0.56316	    0.15763	    0.75666	    0.20387	    0.18778	    0.65452	    0.23212	    0.09406	    0.66091	    0.15251	    0.04829	    0.96492	    0.47093	    0.09509	    0.92691	    0.21871	   -0.07983	    1.04010	    0.30164	    0.12000	    1.38159	    0.52549	    0.15801	    1.44047	    0.16592	    0.12027	    1.45605	    0.32234	    0.00383	    1.11410	    0.62025	   -0.08468	    1.40547	   -0.00153	    0.19458	    0.94869	    0.69752	   -0.27021	    1.32925	   -0.17790	    0.46477	    0.21809	    0.51323	
122	0.605	   -0.57026	    0.56079	    0.46071	   -0.55194	    0.39383	    0.50872	   -0.61914	    0.44017	    0.53151	   -0.60541	    0.29376	    0.49502	    0.26426	    0.02469	    0.29912	    0.37918	    0.15839	    0.24038	    0.36759	    0.06640	    0.20754	    0.47332	    0.18877	    0.21659	   -0.22254	    0.45751	    0.53642	   -0.38503	    0.45085	    0.52041	   -0.31673	    0.52333	    0.57790	   -0.26145	    0.59393	    0.50567	    0.25471	    0.41858	    0.24046	    0.29315	    0.26550	    0.24978	    0.20779	    0.33516	    0.17888	    0.20475	    0.20310	    0.24871	   -0.08258	    0.47468	    0.54761	    0.25152	    0.52821	    0.23535	    0.01591	    0.71195	    0.54622	   -0.01264	    0.61276	    0.54784	   -0.08354	    0.70092	    0.56175	    0.16654	    0.75191	    0.20183	    0.19933	    0.65253	    0.22931	    0.10496	    0.65539	    0.15105	    0.05839	    0.96233	    0.46981	    0.10414	    0.92355	    0.21802	   -0.07177	    1.03519	    0.30166	    0.12483	    1.37908	    0.52437	    0.16293	    1.43730	    0.16121	    0.12357	    1.45377	    0.32059	    0.00933	    1.11101	    0.61790	   -0.08240	    1.40219	   -0.00288	    0.19929	    0.94398	    0.69645	   -0.26883	    1.32366	   -0.17712	    0.46502	    0.21776	    0.51338	
123	0.610	   -0.56125	    0.57468	    0.46370	   -0.55128	    0.40761	    0.51184	   -0.61684	    0.45655	    0.53350	   -0.61459	    0.30872	    0.49078	    0.26935	    0.02682	    0.29821	    0.38943	    0.15467	    0.23893	    0.37519	    0.06203	    0.20663	    0.48352	    0.18262	    0.21478	   -0.21834	    0.45750	    0.53415	   -0.38201	    0.45661	    0.52080	   -0.30980	    0.52560	    0.57551	   -0.25347	    0.59649	    0.50546	    0.26775	    0.41566	    0.24042	    0.30435	    0.26203	    0.24965	    0.21975	    0.33263	    0.17887	    0.21546	    0.20121	    0.24776	   -0.07730	    0.46992	    0.54263	    0.26537	    0.52533	    0.23494	    0.02434	    0.70634	    0.54463	   -0.00470	    0.60716	    0.54326	   -0.07346	    0.69630	    0.55977	    0.17625	    0.74754	    0.19953	    0.21199	    0.65124	    0.22682	    0.11685	    0.65081	    0.14899	    0.06826	    0.95954	    0.46990	    0.11212	    0.92006	    0.21802	   -0.06345	    1.02956	    0.30078	    0.12982	    1.37648	    0.52264	    0.16574	    1.43519	    0.16023	    0.12874	    1.45080	    0.31942	    0.01535	    1.10667	    0.61569	   -0.07873	    1.39710	   -0.00254	    0.20451	    0.93931	    0.69448	   -0.26671	    1.31677	   -0.17644	    0.46517	    0.21926	    0.51254	
124	0.615	   -0.55077	    0.58717	    0.46618	   -0.54984	    0.42022	    0.51390	   -0.61285	    0.47207	    0.53616	   -0.62003	    0.32320	    0.49101	    0.27288	    0.02844	    0.29871	    0.39787	    0.14922	    0.23892	    0.37926	    0.05748	    0.20558	    0.49317	    0.17353	    0.21395	   -0.21409	    0.45723	    0.53142	   -0.37737	    0.46209	    0.52048	   -0.30304	    0.52747	    0.57397	   -0.24514	    0.59828	    0.50542	    0.28064	    0.41285	    0.23989	    0.31493	    0.25876	    0.24921	    0.23219	    0.33075	    0.17808	    0.22488	    0.19919	    0.24657	   -0.07186	    0.46519	    0.53803	    0.27951	    0.52291	    0.23344	    0.03341	    0.70052	    0.54174	    0.00324	    0.60108	    0.53902	   -0.06382	    0.69173	    0.55792	    0.18633	    0.74338	    0.19741	    0.22399	    0.64903	    0.22459	    0.12944	    0.64640	    0.14899	    0.07869	    0.95596	    0.46975	    0.12227	    0.91640	    0.21622	   -0.05491	    1.02422	    0.30021	    0.13421	    1.37285	    0.52096	    0.16937	    1.43265	    0.15858	    0.13166	    1.44830	    0.31768	    0.02031	    1.10312	    0.61343	   -0.07551	    1.39271	   -0.00466	    0.20843	    0.93407	    0.69373	   -0.26354	    1.31076	   -0.17819	    0.46501	    0.21807	    0.51310	
125	0.620	   -0.54006	    0.59899	    0.47033	   -0.54756	    0.43192	    0.51577	   -0.60793	    0.48640	    0.53883	   -0.62285	    0.33654	    0.49338	    0.27551	    0.03019	    0.30033	    0.40607	    0.14294	    0.24003	    0.38308	    0.05286	    0.20593	    0.50136	    0.16311	    0.21296	   -0.20980	    0.45615	    0.52858	   -0.37342	    0.46686	    0.51973	   -0.29519	    0.52931	    0.57269	   -0.23667	    0.59968	    0.50449	    0.29306	    0.40939	    0.23910	    0.32457	    0.25505	    0.24904	    0.24459	    0.32793	    0.17736	    0.23387	    0.19687	    0.24523	   -0.06616	    0.45950	    0.53120	    0.29379	    0.52027	    0.23249	    0.04180	    0.69420	    0.53787	    0.01064	    0.59495	    0.53384	   -0.05438	    0.68682	    0.55589	    0.19650	    0.73979	    0.19549	    0.23530	    0.64640	    0.22109	    0.14109	    0.64348	    0.14938	    0.08818	    0.95191	    0.46870	    0.12954	    0.91234	    0.21556	   -0.04701	    1.01819	    0.30053	    0.13944	    1.36967	    0.51981	    0.17226	    1.42968	    0.15730	    0.13522	    1.44518	    0.31688	    0.02557	    1.09869	    0.61075	   -0.07275	    1.38831	   -0.00605	    0.21192	    0.92837	    0.69228	   -0.25803	    1.30297	   -0.17899	    0.46487	    0.21808	    0.51324	
